<svg width="40" height="40" viewBox="0 0 40 40" fill="none" xmlns="http://www.w3.org/2000/svg">
<path d="M20.4172 14.0462C21.103 13.9571 21.798 14.1182 22.3747 14.5C22.4485 14.5502 22.5387 14.5703 22.6269 14.5562C22.7151 14.5421 22.7945 14.4948 22.849 14.4241C22.9034 14.3533 22.9288 14.2645 22.9199 14.1756C22.9109 14.0868 22.8684 14.0047 22.8009 13.9462C22.0809 13.4462 21.2009 13.2337 20.3322 13.3512C20.2403 13.3625 20.1565 13.4097 20.0994 13.4826C20.0422 13.5554 20.0162 13.648 20.0272 13.74C20.032 13.786 20.0459 13.8306 20.0683 13.8711C20.0906 13.9116 20.1209 13.9472 20.1573 13.9757C20.1937 14.0043 20.2354 14.0253 20.2801 14.0374C20.3247 14.0495 20.3714 14.0525 20.4172 14.0462ZM13.6997 14.5025C13.6405 14.5471 13.5686 14.5717 13.4945 14.5728C13.4203 14.5739 13.3477 14.5515 13.2872 14.5087C13.2429 14.4772 13.2066 14.4358 13.1811 14.3878C13.1556 14.3398 13.1416 14.2865 13.1402 14.2321C13.1389 14.1778 13.1502 14.1239 13.1734 14.0747C13.1965 14.0255 13.2308 13.9824 13.2734 13.9487C13.9958 13.4549 14.8742 13.2432 15.7422 13.3537C15.7877 13.3593 15.8316 13.3738 15.8715 13.3963C15.9113 13.4189 15.9464 13.4491 15.9746 13.4852C16.0028 13.5213 16.0236 13.5626 16.0358 13.6067C16.0481 13.6509 16.0515 13.697 16.0459 13.7425C16.0404 13.7879 16.0259 13.8318 16.0033 13.8717C15.9808 13.9116 15.9506 13.9466 15.9145 13.9748C15.8784 14.003 15.8371 14.0239 15.7929 14.0361C15.7488 14.0484 15.7027 14.0518 15.6572 14.0462C14.9713 13.9634 14.2782 14.1249 13.6997 14.5025ZM19.7997 17.3125H19.6872C19.6424 17.3121 19.5982 17.3019 19.5577 17.2827C19.5172 17.2634 19.4814 17.2355 19.4528 17.201C19.4243 17.1665 19.4036 17.1261 19.3922 17.0827C19.3809 17.0394 19.3792 16.9941 19.3872 16.95C19.4757 16.5308 19.7051 16.1547 20.0371 15.884C20.3691 15.6134 20.7838 15.4646 21.2122 15.4625C21.6255 15.4612 22.0273 15.5984 22.3535 15.8521C22.6798 16.1059 22.9117 16.4616 23.0122 16.8625C23.0249 16.9167 23.0251 16.9731 23.0128 17.0275C23.0004 17.0818 22.9758 17.1326 22.9409 17.176C22.9059 17.2194 22.8615 17.2543 22.8111 17.2779C22.7606 17.3015 22.7054 17.3134 22.6497 17.3125H22.0872C22.1122 17.2091 22.1247 17.105 22.1247 17C22.1227 16.6856 21.997 16.3847 21.7747 16.1624C21.5524 15.9402 21.2515 15.8144 20.9372 15.8125C20.7818 15.8124 20.628 15.8432 20.4846 15.9031C20.3413 15.9629 20.2112 16.0506 20.1019 16.161C19.9926 16.2714 19.9063 16.4025 19.848 16.5465C19.7897 16.6905 19.7605 16.8446 19.7622 17C19.7622 17.105 19.7747 17.2091 19.7997 17.3125Z" fill="#B48F41"/>
<path d="M20.9374 16.325C20.8569 16.326 20.7772 16.3399 20.7011 16.3662C20.7278 16.3856 20.7496 16.4109 20.7648 16.4402C20.78 16.4694 20.7882 16.5018 20.7888 16.5348C20.7893 16.5678 20.7821 16.6005 20.7678 16.6302C20.7535 16.6599 20.7325 16.6859 20.7065 16.7061C20.6804 16.7263 20.65 16.7402 20.6176 16.7466C20.5853 16.753 20.5519 16.7518 20.5201 16.7431C20.4883 16.7344 20.4589 16.7184 20.4344 16.6963C20.4098 16.6743 20.3907 16.6469 20.3786 16.6162C20.3107 16.7166 20.271 16.8333 20.2637 16.9543C20.2565 17.0753 20.2819 17.196 20.3374 17.3037H21.5374C21.5899 17.2011 21.6151 17.0867 21.6107 16.9715C21.6062 16.8564 21.5722 16.7443 21.512 16.646C21.4518 16.5477 21.3673 16.4666 21.2666 16.4104C21.166 16.3542 21.0526 16.3247 20.9374 16.325ZM18.5374 20.0375C18.6477 20.0374 18.7565 20.0115 18.8551 19.9617C18.9536 19.912 19.0391 19.8399 19.1047 19.7512C19.1703 19.6625 19.2143 19.5596 19.233 19.4509C19.2517 19.3421 19.2446 19.2305 19.2124 19.125L18.5249 16.9C18.4926 16.7942 18.4272 16.7016 18.3383 16.6358C18.2494 16.57 18.1417 16.5345 18.0311 16.5345C17.9205 16.5345 17.8129 16.57 17.724 16.6358C17.6351 16.7016 17.5697 16.7942 17.5374 16.9L16.8499 19.125C16.8179 19.2305 16.8111 19.342 16.8299 19.4507C16.8487 19.5593 16.8927 19.6621 16.9582 19.7507C17.0238 19.8394 17.1092 19.9115 17.2076 19.9612C17.306 20.011 17.4146 20.0371 17.5249 20.0375H18.5374ZM19.9624 20.8375C19.3662 21.1415 18.7066 21.2999 18.0374 21.2999C17.3682 21.2999 16.7085 21.1415 16.1124 20.8375C16.0712 20.8166 16.0244 20.8097 15.979 20.8179C15.9336 20.8262 15.8922 20.8491 15.861 20.8831C15.8298 20.9171 15.8106 20.9603 15.8064 21.0063C15.8021 21.0522 15.813 21.0983 15.8374 21.1375C16.0743 21.5057 16.3999 21.8085 16.7843 22.0182C17.1687 22.2279 17.5995 22.3378 18.0374 22.3378C18.4752 22.3378 18.9061 22.2279 19.2905 22.0182C19.6748 21.8085 20.0004 21.5057 20.2374 21.1375C20.2549 21.1081 20.265 21.075 20.267 21.0409C20.269 21.0069 20.2627 20.9728 20.2487 20.9416C20.2347 20.9105 20.2135 20.8832 20.1867 20.862C20.1599 20.8408 20.1284 20.8264 20.0949 20.82C20.05 20.8114 20.0035 20.8175 19.9624 20.8375ZM15.1374 16.325C15.0448 16.3265 14.9532 16.3451 14.8674 16.38C14.8954 16.4049 14.9163 16.4369 14.9279 16.4726C14.9396 16.5083 14.9416 16.5464 14.9337 16.5831C14.9258 16.6198 14.9084 16.6538 14.8831 16.6816C14.8579 16.7093 14.8257 16.7299 14.7899 16.7412C14.7469 16.7548 14.7008 16.7543 14.6581 16.7399C14.6154 16.7256 14.5784 16.698 14.5524 16.6612C14.4951 16.7597 14.4637 16.871 14.4611 16.9849C14.4585 17.0988 14.4847 17.2115 14.5374 17.3125H15.7374C15.7892 17.2166 15.815 17.1089 15.8124 17C15.8129 16.9112 15.7958 16.8232 15.762 16.7411C15.7283 16.6589 15.6786 16.5843 15.6158 16.5216C15.553 16.4588 15.4784 16.4091 15.3963 16.3753C15.3142 16.3416 15.2262 16.3245 15.1374 16.325Z" fill="#B48F41"/>
<path d="M13.4248 17.3125H13.9873C13.9407 17.1361 13.9352 16.9514 13.9711 16.7725C14.0069 16.5936 14.0833 16.4252 14.1943 16.2804C14.3054 16.1356 14.4481 16.0182 14.6115 15.9371C14.775 15.856 14.9548 15.8134 15.1373 15.8125C15.2926 15.8125 15.4465 15.8433 15.5898 15.9031C15.7332 15.963 15.8633 16.0506 15.9726 16.1611C16.0819 16.2715 16.1682 16.4025 16.2265 16.5465C16.2848 16.6905 16.3139 16.8447 16.3123 17C16.3123 17.105 16.2998 17.2092 16.2748 17.3125H16.3873C16.4321 17.3122 16.4763 17.302 16.5168 17.2827C16.5573 17.2635 16.5931 17.2356 16.6216 17.2011C16.6502 17.1666 16.6709 17.1262 16.6822 17.0828C16.6936 17.0395 16.6953 16.9941 16.6873 16.95C16.5988 16.5309 16.3694 16.1547 16.0374 15.8841C15.7053 15.6135 15.2906 15.4647 14.8623 15.4625C14.449 15.4613 14.0472 15.5985 13.7209 15.8522C13.3947 16.106 13.1628 16.4616 13.0623 16.8625C13.05 16.9167 13.0502 16.973 13.0628 17.0271C13.0753 17.0813 13.0999 17.1318 13.1348 17.1751C13.1697 17.2184 13.2139 17.2532 13.2641 17.277C13.3143 17.3008 13.3692 17.313 13.4248 17.3125ZM33.951 9.25002C33.8102 9.24986 33.6707 9.27744 33.5405 9.33119C33.4103 9.38493 33.292 9.46379 33.1923 9.56327C32.9909 9.76417 32.8776 10.0368 32.8773 10.3213C32.877 10.6057 32.9896 10.8786 33.1905 11.08C33.3914 11.2814 33.6641 11.3947 33.9485 11.395C34.233 11.3954 34.5059 11.2827 34.7073 11.0818C34.9086 10.8809 35.022 10.6082 35.0223 10.3238C35.0226 10.0393 34.9099 9.7664 34.709 9.56504C34.5081 9.36367 34.2355 9.25036 33.951 9.25002ZM29.3248 11.8025C29.1452 11.803 28.9688 11.8494 28.8123 11.9375C28.6545 12.0196 28.5201 12.1404 28.4218 12.2887C28.3235 12.4369 28.2644 12.6077 28.2502 12.785C28.2359 12.9623 28.267 13.1403 28.3404 13.3023C28.4138 13.4643 28.5271 13.6051 28.6698 13.7113C28.6723 13.7163 28.6756 13.7204 28.6798 13.7238C28.8628 13.869 29.0887 13.9498 29.3223 13.9538C29.6067 13.9541 29.8797 13.8414 30.081 13.6405C30.2824 13.4396 30.3957 13.167 30.396 12.8825C30.3964 12.5981 30.2837 12.3252 30.0828 12.1238C29.8819 11.9224 29.6092 11.8091 29.3248 11.8088V11.8025ZM30.7373 9.27502C30.7373 9.37448 30.6978 9.46986 30.6275 9.54019C30.5571 9.61052 30.4617 9.65002 30.3623 9.65002C30.2628 9.65002 30.1674 9.61052 30.0971 9.54019C30.0268 9.46986 29.9873 9.37448 29.9873 9.27502C29.9873 9.17557 30.0268 9.08019 30.0971 9.00986C30.1674 8.93953 30.2628 8.90002 30.3623 8.90002C30.4617 8.90002 30.5571 8.93953 30.6275 9.00986C30.6978 9.08019 30.7373 9.17557 30.7373 9.27502Z" fill="#B48F41"/>
<path d="M37.0573 8.61001C36.6855 7.93373 36.1039 7.39669 35.4002 7.07989C34.6965 6.7631 33.9088 6.68373 33.1561 6.85375L33.5011 5.65876C33.5917 5.35041 33.6199 5.02709 33.5841 4.70771C33.5483 4.38833 33.4491 4.07929 33.2925 3.79867C33.1358 3.51806 32.9248 3.27149 32.6717 3.0734C32.4186 2.87532 32.1286 2.72968 31.8186 2.64501L31.5298 2.55501C31.3712 2.50615 31.2044 2.48938 31.0392 2.50567C30.8741 2.52195 30.7138 2.57097 30.5678 2.64986C30.4217 2.72875 30.2929 2.83594 30.1887 2.96516C30.0845 3.09438 30.0072 3.24306 29.9611 3.40251L29.8361 3.83626C29.3945 3.844 28.9605 3.95293 28.5677 4.15469C28.1748 4.35644 27.8334 4.64563 27.5698 5.00001C27.1349 5.39906 26.6358 5.72192 26.0936 5.95501L25.5936 5.81126C25.4356 5.76598 25.2703 5.75228 25.1071 5.77094C24.9439 5.7896 24.7859 5.84026 24.6423 5.92001C24.6295 5.92713 24.6181 5.93643 24.6086 5.9475L24.5798 5.97251C23.8667 4.95609 22.8333 4.20815 21.645 3.8483C20.4567 3.48845 19.182 3.53746 18.0248 3.98751C17.3848 3.73751 16.7036 3.61251 16.0173 3.61251C15.071 3.61356 14.1404 3.85386 13.3119 4.31105C12.4834 4.76824 11.7839 5.42749 11.2786 6.2275C11.1572 6.41835 10.9748 6.56244 10.7611 6.63626C9.9793 6.90389 9.26663 7.34158 8.67438 7.9178C8.08214 8.49401 7.62507 9.19442 7.3361 9.96854C7.04714 10.7427 6.93346 11.5713 7.00327 12.3946C7.07308 13.218 7.32463 14.0156 7.73981 14.73C7.2225 15.5277 6.96068 16.4641 6.98927 17.4144C7.01785 18.3647 7.33549 19.2836 7.89981 20.0488V20.25C7.89824 20.9482 8.03432 21.6399 8.30028 22.2855C8.56624 22.9311 8.95687 23.518 9.44981 24.0125C5.99418 26.1015 3.41473 29.3744 2.19106 33.2225L2.16606 33.2975C1.77368 34.5261 1.47697 35.7832 1.27856 37.0575C1.22377 37.4138 1.24667 37.7777 1.34569 38.1243C1.44471 38.4709 1.61751 38.7919 1.85224 39.0655C2.08697 39.3391 2.37808 39.5586 2.70561 39.7091C3.03315 39.8596 3.38935 39.9375 3.74981 39.9375H32.2998C32.6593 39.936 33.0143 39.8572 33.3407 39.7065C33.6671 39.5558 33.9573 39.3367 34.1917 39.0641C34.426 38.7915 34.5991 38.4716 34.699 38.1263C34.799 37.781 34.8235 37.4182 34.7711 37.0625C34.5752 35.7942 34.2907 34.5411 33.9198 33.3125C33.0775 30.6034 31.5559 28.1549 29.4998 26.2C29.4516 26.147 29.4011 26.0961 29.3486 26.0475C28.5132 25.2735 27.6005 24.5874 26.6248 24C27.6118 23.0014 28.1655 21.6541 28.1661 20.25V20.03C28.7261 19.2637 29.0395 18.3451 29.0648 17.3963C29.0702 17.0604 29.0379 16.725 28.9686 16.3963C29.0169 16.4013 29.0648 16.4088 29.1123 16.4188C29.1823 16.4313 29.2511 16.4438 29.3236 16.4438C30.1279 16.4434 30.9081 16.1689 31.5355 15.6656C32.1629 15.1622 32.6 14.4601 32.7748 13.675C33.4698 13.917 34.2227 13.9378 34.93 13.7345C35.6373 13.5313 36.2643 13.114 36.7248 12.54C37.1626 11.9912 37.4279 11.3249 37.487 10.6254C37.5462 9.92591 37.3967 9.22455 37.0573 8.61001ZM9.74981 16.25C9.91527 15.9438 10.1514 15.6816 10.4386 15.485C10.6998 15.3025 10.9986 15.1813 11.3136 15.13V14.055C11.3129 13.4736 11.4268 12.8977 11.6488 12.3604C11.8708 11.823 12.1966 11.3347 12.6074 10.9233C13.0182 10.5119 13.5061 10.1854 14.0432 9.96267C14.5802 9.73991 15.1559 9.62517 15.7373 9.625H17.4248C17.5997 9.62499 17.7706 9.67737 17.9154 9.77541C18.0602 9.87345 18.1724 10.0126 18.2373 10.175C18.4954 10.7375 18.9092 11.2142 19.4298 11.5487C19.9504 11.8832 20.556 12.0615 21.1748 12.0625H23.0248C23.5126 12.0876 23.973 12.296 24.3137 12.6459C24.6544 12.9959 24.8503 13.4617 24.8623 13.95L24.8536 13.97H24.8611L24.7873 15.15C24.794 15.1508 24.8002 15.1529 24.8061 15.1563C24.8127 15.1596 24.819 15.1617 24.8248 15.1625H24.8498C25.1386 15.225 25.4123 15.35 25.6498 15.525V15.5C25.9311 15.7004 26.1606 15.9649 26.3193 16.2716C26.478 16.5783 26.5615 16.9183 26.5627 17.2637C26.5639 17.609 26.4829 17.9497 26.3263 18.2575C26.1697 18.5653 25.9421 18.8314 25.6623 19.0338V19.025C25.3332 19.2631 24.9428 19.4019 24.5373 19.425L24.4123 21.35C24.3397 21.8558 24.1953 22.3487 23.9836 22.8138C23.9956 22.7869 24.0028 22.7581 24.0048 22.7288C23.8096 23.1717 23.551 23.5839 23.2373 23.9525L23.1886 24.0088C23.1111 24.1004 23.0302 24.19 22.9461 24.2775C22.8848 24.3388 22.8211 24.4025 22.7561 24.4563C22.5069 24.6857 22.2351 24.8893 21.9448 25.0638C21.8114 25.1442 21.6751 25.2197 21.5361 25.29C21.4836 25.315 21.4306 25.3383 21.3773 25.36L21.3186 25.385C20.6777 25.6646 19.9865 25.81 19.2873 25.8125H16.8123C16.0995 25.8109 15.395 25.6606 14.7436 25.3713L14.6723 25.3413C14.3194 25.1808 13.9863 24.9799 13.6798 24.7425C13.3841 24.5169 13.1146 24.2591 12.8761 23.9738L12.7936 23.8763C12.5436 23.5663 12.3298 23.2263 12.1573 22.8675L12.1486 22.8475L12.1748 22.875C11.9411 22.3908 11.789 21.8713 11.7248 21.3375L11.5998 19.4375C11.1691 19.4253 10.7517 19.2861 10.3998 19.0375H10.3898C9.96421 18.7287 9.66488 18.2762 9.54721 17.7637C9.42955 17.2513 9.50152 16.7135 9.74981 16.25ZM20.7973 26.875C20.7303 27.5617 20.4101 28.1989 19.8991 28.6624C19.3881 29.126 18.7229 29.3828 18.0329 29.3828C17.343 29.3828 16.6777 29.126 16.1667 28.6624C15.6557 28.1989 15.3356 27.5617 15.2686 26.875C15.7769 27.0042 16.2927 27.07 16.8161 27.0725H19.2911C19.798 27.0679 20.3026 27.0015 20.7936 26.875H20.7973ZM27.6536 27.875V27.8863C29.4625 29.5562 30.7991 31.6736 31.5286 34.025C31.8661 35.1425 32.1261 36.2838 32.3036 37.4375H3.74981C3.92481 36.3008 4.18731 35.1842 4.53731 34.0875L4.57481 33.975C5.1849 32.0525 6.20036 30.2833 7.55263 28.7867C8.90491 27.2902 10.5625 26.1012 12.4136 25.3C12.8802 25.7409 13.4108 26.1088 13.9873 26.3913V26.5875C13.9867 27.1185 14.0906 27.6445 14.2932 28.1354C14.4958 28.6262 14.7931 29.0724 15.1682 29.4483C15.5432 29.8243 15.9886 30.1227 16.479 30.3265C16.9693 30.5304 17.495 30.6356 18.0261 30.6363C18.5571 30.6369 19.0831 30.533 19.5739 30.3304C20.0648 30.1277 20.5109 29.8304 20.8869 29.4554C21.2628 29.0804 21.5613 28.635 21.7651 28.1446C21.9689 27.6542 22.0742 27.1285 22.0748 26.5975V26.4088C22.6673 26.1188 23.2123 25.74 23.6886 25.2838C25.1453 25.9185 26.4846 26.7946 27.6498 27.875H27.6536ZM35.0623 12.3375C34.5285 12.6324 33.8995 12.7033 33.3135 12.5345C32.7275 12.3658 32.2325 11.9712 31.9373 11.4375C31.7702 11.1387 31.676 10.8046 31.6623 10.4625L31.4123 10.3888L31.1761 10.3175L30.8773 10.2313L30.6461 11.0375C30.9261 11.2313 31.1573 11.4875 31.3198 11.7875C31.5621 12.2041 31.6654 12.687 31.6148 13.1663C31.5642 13.6455 31.3623 14.0962 31.0383 14.453C30.7144 14.8098 30.2852 15.0542 29.8131 15.1508C29.3409 15.2473 28.8503 15.191 28.4123 14.99C28.2055 14.8986 28.0121 14.7796 27.8373 14.6363C27.814 14.6196 27.7911 14.6017 27.7686 14.5825C27.5791 14.4162 27.419 14.2193 27.2948 14C26.9999 13.4662 26.929 12.8372 27.0978 12.2512C27.2666 11.6651 27.6612 11.1701 28.1948 10.875C28.4936 10.7075 28.8273 10.6125 29.1698 10.6L29.4011 9.80625L25.9998 8.82501C25.6932 8.73204 25.4346 8.52377 25.2784 8.24401C25.1222 7.96425 25.0806 7.63481 25.1623 7.32501L25.2498 7.01251L29.8348 8.33876L31.1623 3.75001L31.4873 3.85001C31.7447 3.92202 31.969 4.08145 32.1216 4.30091C32.2742 4.52036 32.3456 4.78612 32.3236 5.05251C32.3247 5.13976 32.3168 5.22691 32.2998 5.31251L31.3086 8.75626L32.0873 8.97501C32.2181 8.79 32.3756 8.63084 32.5598 8.49751C32.6473 8.425 32.7398 8.35917 32.8373 8.3C33.371 8.02542 33.9907 7.96971 34.5648 8.1447C35.1389 8.31968 35.6222 8.71158 35.912 9.23716C36.2018 9.76274 36.2753 10.3806 36.1169 10.9595C35.9585 11.5384 35.5806 12.0327 35.0636 12.3375H35.0623Z" fill="#B48F41"/>
</svg>
